<svg width="29" height="28" viewBox="0 0 29 28" fill="none" xmlns="http://www.w3.org/2000/svg">
<path d="M12.0938 0.0586524C11.9648 0.0566989 11.8359 0.103574 11.7363 0.199277L10.2969 1.5899C10.0996 1.78131 10.0938 2.09771 10.2871 2.29693C10.3848 2.39654 10.5137 2.44928 10.6465 2.44928C10.7715 2.44928 10.8965 2.4024 10.9922 2.30865L12.4316 0.918027C12.6309 0.726621 12.6348 0.410214 12.4434 0.210996C12.3477 0.113339 12.2207 0.0625584 12.0938 0.0586524ZM5.86523 2.00006C4.76758 2.00006 3.79688 2.35162 3.20313 2.9649L3.14453 3.0235C2.42969 3.75396 0.753906 5.46686 0.753906 8.83209C0.753906 11.7208 2.4707 14.5118 3.49219 15.92L3.53125 15.9708C3.55469 16.002 3.5957 16.0626 3.65625 16.1504C6.90234 20.8848 10.9141 24.42 14.957 26.1036C18.5449 27.5997 20.4434 27.9981 21.7422 27.9981C22.291 27.9981 22.7324 27.9278 23.1504 27.8379C25.0137 27.4337 27.3262 26.0626 27.9395 24.3145C28.4395 22.8946 28.5938 21.2969 28.2871 20.7579C28.084 20.3985 27.709 20.2169 27.1895 19.9649C27.0762 19.9102 26.9531 19.8516 26.8203 19.7833C26.7812 19.7637 22.9824 17.8614 22.2812 17.6172C21.4004 17.2813 20.6191 17.5196 20.0801 18.2872L19.8047 18.6778C19.2715 19.4297 18.7676 20.1407 18.3594 20.5821C18.0996 20.8614 17.6543 20.8497 17.3301 20.7149L17.1211 20.629C16.248 20.2735 14.4316 19.5352 12.1855 17.5235C10.3887 15.9141 9.09961 13.8731 8.63086 13.0762C8.43555 12.7403 8.51758 12.6192 8.85156 12.2247C9.03125 12.0001 9.20703 11.8126 9.38281 11.6251C9.5293 11.4708 9.67383 11.3165 9.82031 11.1446L9.88867 11.0684C10.1836 10.7227 10.3965 10.4747 10.6152 10.0079C10.9824 9.28912 10.6406 8.57428 10.5293 8.33795C10.418 8.10553 9.64648 6.22271 9.08398 4.84771L8.51367 3.45709L8.51172 3.45514C7.98047 2.17389 7.44922 2.06061 6.64844 2.0274C6.41602 2.01373 6.1543 2.00006 5.86523 2.00006ZM15.3672 2.7735C15.3027 2.7735 15.2363 2.78521 15.1719 2.81061L12.3906 3.93365C12.1328 4.03717 12.0117 4.33014 12.1152 4.586C12.1934 4.78131 12.3809 4.8985 12.5781 4.8985C12.6406 4.8985 12.7031 4.88678 12.7656 4.86139L15.5469 3.73834C15.8027 3.63482 15.9258 3.34381 15.8223 3.086C15.7461 2.89459 15.5625 2.7774 15.3672 2.7735ZM6.04297 3.00396C6.24023 3.00787 6.42578 3.01568 6.59961 3.02545C7.14844 3.04889 7.26367 3.05279 7.58789 3.836L8.1582 5.22662C8.91992 7.08795 9.51172 8.52936 9.625 8.76764C9.79492 9.12311 9.82422 9.35748 9.71875 9.56842C9.54883 9.92779 9.4082 10.0899 9.13086 10.4141L9.10742 10.4434L6.04297 3.00396ZM5.01758 3.09381C5.02539 3.12701 5.02344 3.16021 5.03711 3.19146L8.35938 11.2598C8.26367 11.3672 8.16602 11.4805 8.0625 11.6075C7.74414 11.9844 7.20898 12.6153 7.76562 13.5782C8.37891 14.6251 9.68359 16.627 11.5176 18.2696C13.8926 20.3965 15.8906 21.209 16.7422 21.5547L16.9434 21.6387C17.7305 21.9669 18.5742 21.8204 19.0938 21.2618C19.3809 20.9512 19.6992 20.5333 20.0312 20.0762L27.1113 23.6153C27.0762 23.7364 27.041 23.8575 26.9961 23.9844C26.5273 25.3184 24.5254 26.5157 22.9395 26.8594C21.9453 27.0723 20.5801 27.3653 15.3418 25.1797C11.4766 23.5684 7.61914 20.1622 4.48242 15.586C4.4082 15.4786 4.35547 15.4044 4.33594 15.377L4.30273 15.3301C3.35156 14.0215 1.75391 11.4376 1.75391 8.83014C1.75391 5.87311 3.17578 4.41998 3.85938 3.72271L3.91992 3.66021C4.17383 3.3985 4.56055 3.20318 5.01758 3.09381ZM12.8906 7.00201C12.6133 7.00201 12.3906 7.22662 12.3906 7.50201C12.3906 7.77936 12.6133 8.00201 12.8906 8.00201H14.8906C15.166 8.00201 15.3906 7.77936 15.3906 7.50201C15.3906 7.22662 15.166 7.00201 14.8906 7.00201H12.8906ZM6.82422 14.3301C6.75977 14.3379 6.69531 14.3594 6.63672 14.3946C6.39844 14.5352 6.31836 14.8419 6.45898 15.0782C6.62305 15.3594 6.91602 15.7891 7.24414 16.2305C7.3418 16.3633 7.49414 16.4317 7.64648 16.4317C7.75 16.4317 7.85352 16.4004 7.94336 16.334C8.16602 16.17 8.21289 15.8555 8.04688 15.6348C7.5918 15.0196 7.37695 14.6661 7.32031 14.5723C7.2168 14.3926 7.01758 14.3047 6.82422 14.3301ZM9.03125 17.1016C8.90234 17.0938 8.77148 17.1348 8.66992 17.2266C8.46289 17.4083 8.44336 17.7247 8.62695 17.9317C9.20508 18.584 9.79492 19.1817 10.3809 19.7051C11.7539 20.9356 13.1348 21.9122 14.4863 22.6075C14.5586 22.6446 14.6387 22.6622 14.7148 22.6622C14.8965 22.6622 15.0703 22.5645 15.1582 22.3907C15.2871 22.1465 15.1895 21.8438 14.9453 21.7188C13.668 21.0606 12.3574 20.1329 11.0469 18.961C10.4902 18.461 9.92773 17.8926 9.375 17.2676C9.2832 17.1661 9.1582 17.1075 9.03125 17.1016ZM21.4766 18.4708C21.6133 18.461 21.7637 18.4903 21.9375 18.5547C22.4746 18.7422 25.416 20.1973 26.3672 20.6778C26.5059 20.7462 26.6348 20.8087 26.7539 20.8672C27.0273 20.9981 27.3672 21.1622 27.4062 21.2266C27.459 21.3692 27.4727 21.8946 27.3516 22.6172L20.623 19.252L20.8984 18.8653C21.0703 18.6192 21.252 18.4903 21.4766 18.4708Z" fill="#F98E58"/>
</svg>
