<svg width="28" height="28" viewBox="0 0 28 28" fill="none" xmlns="http://www.w3.org/2000/svg">
<path d="M13.8594 -4.14713e-05C13.7266 0.00386453 13.6016 0.0585526 13.5098 0.154256C13.418 0.249959 13.3672 0.378864 13.3711 0.511678L13.3809 1.51168C13.3809 1.69136 13.4766 1.85738 13.6328 1.94527C13.7891 2.03511 13.9824 2.03316 14.1367 1.94136C14.291 1.84957 14.3848 1.6816 14.3809 1.50191L14.3711 0.501911C14.3711 0.367146 14.3184 0.238239 14.2207 0.142536C14.125 0.0487864 13.9941 -0.00394747 13.8594 -4.14713e-05ZM16.4121 0.222615C16.1738 0.230428 15.9746 0.406209 15.9355 0.638631L15.7559 1.62301C15.7246 1.79879 15.7871 1.97847 15.9238 2.09371C16.0605 2.2109 16.248 2.2441 16.416 2.18355C16.584 2.12496 16.709 1.97847 16.7402 1.80269L16.9199 0.818318C16.9473 0.667928 16.9082 0.513631 16.8086 0.398396C16.709 0.281209 16.5625 0.216756 16.4121 0.222615ZM11.3105 0.261678C11.1601 0.263631 11.0195 0.331989 10.9258 0.449178C10.832 0.566365 10.7969 0.720662 10.8281 0.867146L11.0254 1.84761C11.0625 2.0234 11.1875 2.16597 11.3574 2.22261C11.5273 2.27926 11.7129 2.24215 11.8476 2.12301C11.9824 2.00582 12.043 1.82418 12.0059 1.6484L11.8086 0.667928C11.7656 0.429646 11.5547 0.257771 11.3105 0.261678ZM18.875 0.921834C18.6738 0.931599 18.498 1.05855 18.4297 1.24605L18.0664 2.17769C17.9961 2.34566 18.0234 2.53707 18.1367 2.67769C18.248 2.82027 18.4277 2.89058 18.6074 2.86129C18.7852 2.83394 18.9336 2.7109 18.998 2.54293L19.3613 1.61129C19.4238 1.45308 19.4043 1.2734 19.3066 1.13277C19.207 0.994099 19.0449 0.914021 18.875 0.921834ZM8.85742 1.01168C8.6914 1.01168 8.53515 1.09566 8.44335 1.23629C8.35156 1.37691 8.33593 1.55465 8.40038 1.70699L8.7832 2.63277C8.8457 2.80465 8.99804 2.92965 9.17968 2.95699C9.36132 2.98238 9.54296 2.90816 9.65234 2.76168C9.76367 2.61324 9.7832 2.41793 9.70702 2.25191L9.32617 1.32808C9.24999 1.13472 9.06445 1.00972 8.85742 1.01168ZM21.1621 2.07808C20.998 2.08785 20.8477 2.17574 20.7617 2.31636L20.2285 3.16207C20.1269 3.31441 20.1172 3.50777 20.1992 3.66988C20.2832 3.83199 20.4473 3.93551 20.6289 3.94136C20.8105 3.94527 20.9805 3.85152 21.0742 3.69527L21.6074 2.84957C21.7051 2.70113 21.7148 2.50972 21.6328 2.34957C21.5527 2.18941 21.3906 2.0859 21.2129 2.07808C21.1953 2.07808 21.1777 2.07808 21.1621 2.07808ZM6.59374 2.21285C6.4082 2.2109 6.23827 2.31441 6.15038 2.47652C6.06445 2.64058 6.07421 2.8398 6.17773 2.9941L6.72656 3.82808C6.8789 4.05855 7.18945 4.12301 7.41992 3.97066C7.65038 3.82027 7.71484 3.50972 7.56249 3.27926L7.01367 2.44332C6.92187 2.29879 6.76367 2.21285 6.59374 2.21285ZM23.2363 3.64644C23.0898 3.64058 22.9473 3.70113 22.8477 3.80855L22.1641 4.54097C22.0371 4.66988 21.9902 4.85738 22.043 5.03316C22.0937 5.20699 22.2363 5.3398 22.4121 5.37886C22.5898 5.41793 22.7754 5.35933 22.8945 5.22261L23.5781 4.4941C23.7148 4.35152 23.7559 4.14254 23.6816 3.95894C23.6074 3.7773 23.4336 3.65426 23.2363 3.64644ZM4.59765 3.81832C4.39452 3.81636 4.21093 3.93746 4.13085 4.12496C4.05273 4.31246 4.09374 4.52926 4.23827 4.67183L4.93554 5.38863C5.05859 5.52144 5.24218 5.57418 5.41796 5.53121C5.59374 5.48824 5.73046 5.35543 5.77929 5.1816C5.82812 5.00777 5.77929 4.82027 5.65234 4.69332L4.95507 3.97457C4.86132 3.87691 4.73437 3.82027 4.5996 3.81832H4.59765ZM14 4.99996C9.03515 4.99996 4.99999 9.03511 4.99999 14C4.99999 18.9648 9.03515 23 14 23C18.9648 23 23 18.9648 23 14C23 9.03511 18.9648 4.99996 14 4.99996ZM24.9297 5.56832C24.8164 5.56636 24.707 5.59957 24.6172 5.66793L23.8086 6.25582C23.6582 6.35933 23.5762 6.53511 23.5937 6.71676C23.6113 6.8984 23.7246 7.05465 23.8926 7.12886C24.0586 7.20113 24.2519 7.17574 24.3965 7.06441L25.2051 6.47652C25.3809 6.35152 25.457 6.12886 25.3945 5.92379C25.332 5.71676 25.1445 5.57418 24.9297 5.56832ZM2.9414 5.77535C2.71874 5.76949 2.51952 5.91011 2.45312 6.12105C2.38476 6.33394 2.46484 6.56441 2.64843 6.68746L3.46679 7.26168C3.69335 7.41988 4.00585 7.36519 4.16406 7.13863C4.32226 6.91207 4.26757 6.59957 4.04101 6.44136L3.22265 5.8691C3.14062 5.81051 3.04296 5.7773 2.9414 5.77535ZM14 5.99996C18.4238 5.99996 22 9.57613 22 14C22 18.4238 18.4238 22 14 22C9.57617 22 5.99999 18.4238 5.99999 14C5.99999 9.57613 9.57617 5.99996 14 5.99996ZM26.2305 7.7773C26.1523 7.77535 26.0742 7.79293 26.0039 7.82613L25.0977 8.25191C24.9336 8.32613 24.8223 8.48238 24.8047 8.66207C24.7891 8.84176 24.8711 9.01754 25.0195 9.1191C25.168 9.22262 25.3594 9.23629 25.5234 9.15621L26.4277 8.73238C26.6406 8.63472 26.7578 8.40426 26.7109 8.17574C26.6621 7.94722 26.4648 7.78121 26.2305 7.7773ZM1.68359 8.00777C1.44335 8.00191 1.23242 8.16597 1.17968 8.40035C1.12695 8.63472 1.24999 8.87301 1.46874 8.96676L2.38281 9.37496C2.63476 9.48824 2.93163 9.37496 3.04296 9.12301C3.15624 8.87105 3.04296 8.57418 2.79101 8.46285L1.87695 8.05465C1.8164 8.0273 1.74999 8.01168 1.68359 8.00972V8.00777ZM27.0879 10.1953C27.043 10.1933 26.998 10.1992 26.9531 10.2109L25.9844 10.455C25.8086 10.4961 25.6699 10.6289 25.6191 10.8027C25.5684 10.9765 25.6152 11.1621 25.7422 11.291C25.8691 11.4199 26.0547 11.4707 26.2285 11.4257L27.1973 11.1816C27.4434 11.1211 27.6074 10.8886 27.5781 10.6386C27.5508 10.3886 27.3398 10.1972 27.0879 10.1933V10.1953ZM0.824212 10.4433C0.574212 10.457 0.37304 10.6543 0.353509 10.9043C0.333978 11.1543 0.501946 11.3789 0.74804 11.4316L1.72265 11.6562C1.89843 11.707 2.08788 11.6543 2.21484 11.5214C2.34179 11.3886 2.38671 11.1972 2.33007 11.0214C2.27538 10.8476 2.12695 10.7168 1.94726 10.6836L0.972649 10.4589C0.939446 10.4492 0.908196 10.4453 0.874993 10.4433C0.857415 10.4433 0.839837 10.4433 0.824212 10.4433ZM14 10.5C12.0723 10.5 10.5 12.0722 10.5 14C10.5 15.9277 12.0723 17.5 14 17.5C15.9277 17.5 17.5 15.9277 17.5 14C17.5 12.0722 15.9277 10.5 14 10.5ZM14 11.5C15.3867 11.5 16.5 12.6132 16.5 14C16.5 15.3867 15.3867 16.5 14 16.5C12.6133 16.5 11.5 15.3867 11.5 14C11.5 12.6132 12.6133 11.5 14 11.5ZM27.4687 12.7304C27.457 12.7304 27.4453 12.7304 27.4336 12.7324L26.4355 12.7871C26.2539 12.7929 26.0879 12.8964 26.0039 13.0586C25.9219 13.2207 25.9316 13.414 26.0332 13.5664C26.1348 13.7168 26.3105 13.8027 26.4922 13.7851L27.4902 13.7285C27.7578 13.7128 27.9648 13.4882 27.959 13.2187C27.9531 12.9511 27.7363 12.7363 27.4687 12.7304ZM0.494134 12.9863C0.226556 13.0019 0.0195243 13.2246 0.0234308 13.4921C0.0253838 13.7597 0.240228 13.9785 0.507806 13.9863L1.50585 14.0234C1.78124 14.0351 2.01367 13.8183 2.02538 13.5429C2.03515 13.2675 1.81835 13.0351 1.54296 13.0234L0.544915 12.9863C0.527337 12.9863 0.509759 12.9863 0.494134 12.9863ZM26.3437 15.1582C26.084 15.1718 25.8769 15.3828 25.8691 15.6425C25.8594 15.9023 26.0527 16.125 26.3105 16.1562L27.3027 16.289C27.4785 16.3125 27.6562 16.2382 27.7637 16.0976C27.873 15.955 27.8984 15.7656 27.8301 15.6015C27.7617 15.4355 27.6113 15.3203 27.4336 15.2968L26.4434 15.164C26.4258 15.1621 26.4102 15.1601 26.3926 15.1582C26.3769 15.1582 26.3594 15.1582 26.3437 15.1582ZM1.66796 15.3945C1.64062 15.3925 1.61132 15.3964 1.58398 15.4003L0.595696 15.5527C0.414056 15.5742 0.261712 15.6933 0.193353 15.8632C0.126946 16.0312 0.156243 16.2226 0.271478 16.3632C0.384759 16.5039 0.566399 16.5722 0.746087 16.541L1.73632 16.3886C1.99804 16.3554 2.18945 16.125 2.17187 15.8593C2.15429 15.5957 1.93359 15.3925 1.66992 15.3945H1.66796ZM25.8555 17.4726C25.6055 17.4628 25.3887 17.6406 25.3477 17.8847C25.3047 18.1308 25.4492 18.3711 25.6855 18.4472L26.6328 18.7636C26.8027 18.8222 26.9883 18.7832 27.123 18.666C27.2578 18.5468 27.3184 18.3671 27.2832 18.1914C27.2461 18.0156 27.1211 17.873 26.9512 17.8164L26.0039 17.498C25.9551 17.4824 25.9062 17.4726 25.8555 17.4726ZM2.25195 17.6953C2.18945 17.6933 2.1289 17.705 2.07031 17.7265L1.12695 18.0625C0.958978 18.1211 0.835931 18.2675 0.804681 18.4433C0.771478 18.6191 0.835931 18.7988 0.972649 18.914C1.10742 19.0293 1.29492 19.0644 1.46484 19.0039L2.40624 18.6679C2.63476 18.5878 2.77538 18.3554 2.73632 18.1152C2.69921 17.875 2.49413 17.6972 2.25195 17.6953ZM24.8867 19.6386C24.6562 19.6328 24.4512 19.7851 24.3906 20.0078C24.3301 20.2324 24.4297 20.4668 24.6328 20.5781L25.5019 21.0703C25.6582 21.1582 25.8496 21.1562 26.0039 21.0664C26.1562 20.9765 26.2519 20.8105 26.25 20.6308C26.248 20.4531 26.1523 20.289 25.9961 20.2011L25.125 19.707C25.0527 19.666 24.9707 19.6425 24.8867 19.6386ZM3.26171 19.8437C3.16601 19.8398 3.07226 19.8652 2.99023 19.916L2.1289 20.4257C1.96874 20.5117 1.86913 20.6796 1.86913 20.8632C1.86913 21.0449 1.96874 21.2148 2.1289 21.3027C2.28906 21.3906 2.48437 21.3828 2.63867 21.2851L3.49804 20.7773C3.69335 20.664 3.78906 20.4375 3.73437 20.2187C3.67968 20.0019 3.48632 19.8476 3.26171 19.8437ZM23.5234 21.5859C23.3105 21.582 23.1191 21.7128 23.0449 21.9121C22.9727 22.1113 23.0312 22.3359 23.1953 22.4707L23.957 23.1191C24.0918 23.2343 24.2793 23.2695 24.4473 23.2089C24.6172 23.1503 24.7402 23.0039 24.7715 22.8281C24.8047 22.6523 24.7402 22.4726 24.6055 22.3574L23.8437 21.7089C23.7539 21.6308 23.6406 21.5878 23.5234 21.5859ZM4.66406 21.7617C4.5332 21.7578 4.40624 21.8046 4.31054 21.8925L3.56054 22.5546C3.42187 22.6699 3.35546 22.8535 3.39062 23.0332C3.42382 23.2109 3.55273 23.3574 3.72656 23.4121C3.90038 23.4687 4.08984 23.4277 4.22265 23.3027L4.97265 22.6406C5.1289 22.5058 5.18749 22.289 5.11913 22.0957C5.04882 21.9003 4.86913 21.7675 4.6621 21.7617H4.66406ZM21.8144 23.2421C21.6211 23.2402 21.4434 23.3515 21.3594 23.5253C21.2773 23.7011 21.3027 23.9101 21.4258 24.0586L22.0508 24.8398C22.2246 25.0546 22.5391 25.0898 22.7539 24.916C22.9707 24.7441 23.0059 24.4296 22.832 24.2128L22.2051 23.4336C22.1113 23.3125 21.9687 23.2421 21.8144 23.2402V23.2421ZM6.35156 23.3847C6.20312 23.3925 6.06835 23.4648 5.97851 23.5839L5.36718 24.375C5.19921 24.5937 5.24023 24.9082 5.45898 25.0761C5.67773 25.2461 5.99218 25.205 6.16015 24.9863L6.76952 24.1953C6.89257 24.041 6.91406 23.8281 6.82226 23.6523C6.73242 23.4785 6.54687 23.373 6.3496 23.3847H6.35156ZM19.8262 24.5449C19.6504 24.5468 19.4863 24.6386 19.3965 24.791C19.3066 24.9433 19.3047 25.1308 19.3887 25.2851L19.8555 26.1699C19.9355 26.3339 20.0996 26.4433 20.2812 26.4511C20.4648 26.4609 20.6367 26.3691 20.7324 26.2128C20.8281 26.0566 20.832 25.8613 20.7402 25.7031L20.2734 24.8183C20.1875 24.6503 20.0156 24.5449 19.8262 24.5468V24.5449ZM8.36327 24.6484C8.17968 24.6582 8.01562 24.7656 7.93749 24.9316L7.48632 25.8242C7.36132 26.0703 7.46093 26.3711 7.70898 26.4961C7.95507 26.6191 8.25585 26.5195 8.38085 26.2734L8.83007 25.3808C8.9121 25.2226 8.90429 25.0312 8.80859 24.8808C8.71093 24.7285 8.54101 24.6406 8.36327 24.6484ZM17.6289 25.4531C17.4707 25.4531 17.3223 25.5312 17.2285 25.6601C17.1348 25.7871 17.1094 25.9531 17.1562 26.1054L17.4473 27.0605C17.498 27.2343 17.6367 27.3671 17.8125 27.4082C17.9883 27.4492 18.1719 27.3945 18.2949 27.2617C18.418 27.1308 18.459 26.9414 18.4062 26.7714L18.1152 25.8144C18.0527 25.5976 17.8535 25.4492 17.6289 25.4531ZM10.5762 25.5117C10.3574 25.5195 10.1699 25.6699 10.1133 25.8828L9.84179 26.8437C9.7871 27.0175 9.83202 27.207 9.95702 27.3378C10.084 27.4687 10.2695 27.5214 10.4453 27.4765C10.6211 27.4296 10.7578 27.2929 10.8027 27.1171L11.0742 26.1543C11.1211 26 11.0898 25.832 10.9922 25.705C10.8926 25.5781 10.7383 25.5058 10.5762 25.5117ZM15.2969 25.9238C15.1562 25.9257 15.0234 25.9882 14.9297 26.0957C14.8379 26.2011 14.7949 26.3418 14.8105 26.4824L14.9141 27.4765C14.9316 27.6543 15.043 27.8086 15.207 27.8828C15.3691 27.955 15.5586 27.9355 15.7031 27.83C15.8496 27.7265 15.9258 27.5527 15.9082 27.375L15.8047 26.3808C15.7812 26.1191 15.5605 25.9199 15.2969 25.9238ZM12.9141 25.9375C12.6582 25.9472 12.4492 26.1464 12.4316 26.4043L12.3476 27.3984C12.3262 27.58 12.4062 27.7578 12.5547 27.8632C12.7031 27.9687 12.8965 27.9843 13.0605 27.9062C13.2246 27.8281 13.334 27.666 13.3437 27.4843L13.4277 26.4882C13.4414 26.3437 13.3945 26.2011 13.2949 26.0976C13.1973 25.9921 13.0586 25.9336 12.9141 25.9375Z" fill="#F98E58"/>
</svg>
