<svg width="70" height="64" viewBox="0 0 70 64" fill="none" xmlns="http://www.w3.org/2000/svg">
<path d="M48.4536 0.249988C44.314 0.219226 40.4556 1.89794 37.6914 4.74999H10.0103C8.37109 4.74999 6.97363 5.92333 6.69238 7.53612L0.337891 43.5405C0.280762 43.8613 0.25 44.1953 0.25 44.5205V59.875C0.25 61.7339 1.76611 63.25 3.625 63.25H59.875C61.7339 63.25 63.25 61.7339 63.25 59.875V44.5205C63.25 44.1953 63.2192 43.8657 63.1621 43.5449L61.479 33.9824C66.0449 33.7891 69.8286 30.1416 69.9956 25.668C70.1318 21.9018 67.7896 18.5708 64.4365 17.2744C64.4058 17.2612 64.3882 17.2348 64.3574 17.2261C64.2168 17.1689 64.0674 17.1382 63.9224 17.0942C63.8389 17.0679 63.751 17.0415 63.6675 17.0195C63.4609 16.958 63.2588 16.9053 63.0522 16.8657C63.0479 16.8657 63.0479 16.8613 63.0435 16.8613C63.1973 15.6089 63.1885 14.3301 63.0215 13.0469C62.1382 6.41552 56.8823 1.2036 50.2422 0.368641C49.6401 0.293934 49.0469 0.254383 48.4536 0.249988ZM48.3569 2.49999C48.8887 2.49999 49.4248 2.53514 49.9653 2.60546C55.5024 3.29979 60.0552 7.81737 60.7891 13.3457C60.9385 14.4751 60.9385 15.6089 60.7891 16.7163C60.4771 16.7339 60.1606 16.7602 59.8442 16.813C59.2334 16.9228 58.8203 17.5029 58.9258 18.1138C59.0356 18.729 59.6201 19.1333 60.2266 19.0278C60.7231 18.9443 61.2153 18.9267 61.7031 18.9531C61.8965 18.9663 62.0854 18.9883 62.27 19.0146C62.314 19.019 62.3535 19.0278 62.3931 19.0366C65.5176 19.5552 67.8643 22.3545 67.7456 25.5845C67.6182 28.9858 64.6431 31.75 61.1055 31.75H37.687C32.2905 31.75 27.8433 27.6719 27.5576 22.4687C27.3247 18.228 29.8823 14.3476 33.7012 12.8008C33.5869 13.5478 33.5122 14.3037 33.5122 15.0683C33.5122 15.6924 34.0176 16.1933 34.6372 16.1933C35.2568 16.1933 35.7622 15.6924 35.7622 15.0683C35.7622 13.8511 35.938 12.6601 36.2808 11.5132C36.2808 11.5044 36.2852 11.5044 36.2852 11.5C36.3599 11.2407 36.4521 10.9946 36.5444 10.7441C36.5796 10.6387 36.6147 10.5288 36.6587 10.4233C38.5615 5.6201 43.1934 2.49999 48.3569 2.49999ZM10.0103 6.99999H35.9072C35.4502 7.70311 35.0547 8.45018 34.7163 9.2412C34.7031 9.26317 34.6855 9.28075 34.6768 9.30272C34.5933 9.50048 34.5317 9.70263 34.457 9.90477C34.4131 10.0146 34.3691 10.1157 34.3296 10.2256C28.8364 11.6538 25 16.8569 25.312 22.5918C25.6592 28.9902 31.0952 34 37.687 34H59.1938L60.7847 43H2.71533L8.90723 7.93163C8.99951 7.3911 9.46533 6.99999 10.0103 6.99999ZM2.5 45.25H61V59.875C61 60.4946 60.4946 61 59.875 61H3.625C3.00537 61 2.5 60.4946 2.5 59.875V45.25ZM10.375 49.75C8.51611 49.75 7 51.2661 7 53.125C7 54.9839 8.51611 56.5 10.375 56.5C12.2339 56.5 13.75 54.9839 13.75 53.125C13.75 51.2661 12.2339 49.75 10.375 49.75ZM32.875 50.875C32.2554 50.875 31.75 51.376 31.75 52V54.25C31.75 54.874 32.2554 55.375 32.875 55.375C33.4946 55.375 34 54.874 34 54.25V52C34 51.376 33.4946 50.875 32.875 50.875ZM38.5 50.875C37.8804 50.875 37.375 51.376 37.375 52V54.25C37.375 54.874 37.8804 55.375 38.5 55.375C39.1196 55.375 39.625 54.874 39.625 54.25V52C39.625 51.376 39.1196 50.875 38.5 50.875ZM44.125 50.875C43.5054 50.875 43 51.376 43 52V54.25C43 54.874 43.5054 55.375 44.125 55.375C44.7446 55.375 45.25 54.874 45.25 54.25V52C45.25 51.376 44.7446 50.875 44.125 50.875ZM49.75 50.875C49.1304 50.875 48.625 51.376 48.625 52V54.25C48.625 54.874 49.1304 55.375 49.75 55.375C50.3696 55.375 50.875 54.874 50.875 54.25V52C50.875 51.376 50.3696 50.875 49.75 50.875ZM55.375 50.875C54.7554 50.875 54.25 51.376 54.25 52V54.25C54.25 54.874 54.7554 55.375 55.375 55.375C55.9946 55.375 56.5 54.874 56.5 54.25V52C56.5 51.376 55.9946 50.875 55.375 50.875ZM10.375 51.7671C11.1221 51.7671 11.7329 52.3779 11.7329 53.125C11.7329 53.8721 11.1221 54.4829 10.375 54.4829C9.62793 54.4829 9.01709 53.8765 9.01709 53.125C9.01709 52.3735 9.62793 51.7671 10.375 51.7671ZM17.125 52C16.5054 52 16 52.501 16 53.125C16 53.749 16.5054 54.25 17.125 54.25H21.625C22.2446 54.25 22.75 53.749 22.75 53.125C22.75 52.501 22.2446 52 21.625 52H17.125Z" fill="#F98E58"/>
</svg>
