<svg width="30" height="27" viewBox="0 0 30 27" fill="none" xmlns="http://www.w3.org/2000/svg">
<path d="M7.5 0C6.67383 0 6 0.673828 6 1.5V2H4.5C3.67383 2 3 2.67383 3 3.5V4H1.5C0.673828 4 0 4.67383 0 5.5V25.5C0 26.3262 0.673828 27 1.5 27H28.5C29.3262 27 30 26.3262 30 25.5V5.5C30 4.67383 29.3262 4 28.5 4H26.9863C26.9902 3.97852 27 3.95898 27 3.9375V3.5C27 2.67383 26.3262 2 25.5 2H23.9863C23.9902 1.97852 24 1.95898 24 1.9375V1.5C24 0.673828 23.3262 0 22.5 0H7.5ZM7.5 1H22.5C22.7754 1 23 1.22461 23 1.5V1.9375C23 1.95898 23.0098 1.97852 23.0137 2H7V1.5C7 1.22461 7.22461 1 7.5 1ZM4.5 3H25.5C25.7754 3 26 3.22461 26 3.5V3.9375C26 3.95898 26.0098 3.97852 26.0137 4H4V3.5C4 3.22461 4.22461 3 4.5 3ZM1.5 5H28.5C28.7754 5 29 5.22461 29 5.5V25.5C29 25.7754 28.7754 26 28.5 26H1.5C1.22461 26 1 25.7754 1 25.5V5.5C1 5.22461 1.22461 5 1.5 5ZM2.5 6C2.22461 6 2 6.22461 2 6.5V7.5C2 7.77539 2.22461 8 2.5 8C2.77539 8 3 7.77539 3 7.5V6.5C3 6.22461 2.77539 6 2.5 6ZM5 6C4.72461 6 4.5 6.22461 4.5 6.5V7.5C4.5 7.77539 4.72461 8 5 8C5.27539 8 5.5 7.77539 5.5 7.5V6.5C5.5 6.22461 5.27539 6 5 6ZM7.5 6C7.22461 6 7 6.22461 7 6.5V7.5C7 7.77539 7.22461 8 7.5 8C7.77539 8 8 7.77539 8 7.5V6.5C8 6.22461 7.77539 6 7.5 6ZM10 6C9.72461 6 9.5 6.22461 9.5 6.5V7.5C9.5 7.77539 9.72461 8 10 8C10.2754 8 10.5 7.77539 10.5 7.5V6.5C10.5 6.22461 10.2754 6 10 6ZM12.5 6C12.2246 6 12 6.22461 12 6.5V7.5C12 7.77539 12.2246 8 12.5 8C12.7754 8 13 7.77539 13 7.5V6.5C13 6.22461 12.7754 6 12.5 6ZM15 6C14.7246 6 14.5 6.22461 14.5 6.5V7.5C14.5 7.77539 14.7246 8 15 8C15.2754 8 15.5 7.77539 15.5 7.5V6.5C15.5 6.22461 15.2754 6 15 6ZM17.5 6C17.2246 6 17 6.22461 17 6.5V7.5C17 7.77539 17.2246 8 17.5 8C17.7754 8 18 7.77539 18 7.5V6.5C18 6.22461 17.7754 6 17.5 6ZM20 6C19.7246 6 19.5 6.22461 19.5 6.5V7.5C19.5 7.77539 19.7246 8 20 8C20.2754 8 20.5 7.77539 20.5 7.5V6.5C20.5 6.22461 20.2754 6 20 6ZM22.5 6C22.2246 6 22 6.22461 22 6.5V7.5C22 7.77539 22.2246 8 22.5 8C22.7754 8 23 7.77539 23 7.5V6.5C23 6.22461 22.7754 6 22.5 6ZM25 6C24.7246 6 24.5 6.22461 24.5 6.5V7.5C24.5 7.77539 24.7246 8 25 8C25.2754 8 25.5 7.77539 25.5 7.5V6.5C25.5 6.22461 25.2754 6 25 6ZM27.5 6C27.2246 6 27 6.22461 27 6.5V7.5C27 7.77539 27.2246 8 27.5 8C27.7754 8 28 7.77539 28 7.5V6.5C28 6.22461 27.7754 6 27.5 6ZM11.9941 9.88086C11.8203 9.87695 11.6465 9.92188 11.4883 10.0117C11.1699 10.1914 11 10.5176 11 10.8828V20.1172C11 20.4824 11.1699 20.8086 11.4883 20.9883C11.6426 21.0762 11.8125 21.1191 11.9824 21.1191C12.1602 21.1191 12.3359 21.0723 12.4941 20.9766L20.207 16.3594C20.5117 16.1758 20.6953 15.8555 20.6953 15.5C20.6953 15.1445 20.5117 14.8242 20.207 14.6406L12.4941 10.0234C12.3379 9.92969 12.168 9.88281 11.9941 9.88086ZM11.9824 10.8828L19.6934 15.5L11.9824 20.1191V10.8828ZM2.5 23C2.22461 23 2 23.2246 2 23.5V24.5C2 24.7754 2.22461 25 2.5 25C2.77539 25 3 24.7754 3 24.5V23.5C3 23.2246 2.77539 23 2.5 23ZM5 23C4.72461 23 4.5 23.2246 4.5 23.5V24.5C4.5 24.7754 4.72461 25 5 25C5.27539 25 5.5 24.7754 5.5 24.5V23.5C5.5 23.2246 5.27539 23 5 23ZM7.5 23C7.22461 23 7 23.2246 7 23.5V24.5C7 24.7754 7.22461 25 7.5 25C7.77539 25 8 24.7754 8 24.5V23.5C8 23.2246 7.77539 23 7.5 23ZM10 23C9.72461 23 9.5 23.2246 9.5 23.5V24.5C9.5 24.7754 9.72461 25 10 25C10.2754 25 10.5 24.7754 10.5 24.5V23.5C10.5 23.2246 10.2754 23 10 23ZM12.5 23C12.2246 23 12 23.2246 12 23.5V24.5C12 24.7754 12.2246 25 12.5 25C12.7754 25 13 24.7754 13 24.5V23.5C13 23.2246 12.7754 23 12.5 23ZM15 23C14.7246 23 14.5 23.2246 14.5 23.5V24.5C14.5 24.7754 14.7246 25 15 25C15.2754 25 15.5 24.7754 15.5 24.5V23.5C15.5 23.2246 15.2754 23 15 23ZM17.5 23C17.2246 23 17 23.2246 17 23.5V24.5C17 24.7754 17.2246 25 17.5 25C17.7754 25 18 24.7754 18 24.5V23.5C18 23.2246 17.7754 23 17.5 23ZM20 23C19.7246 23 19.5 23.2246 19.5 23.5V24.5C19.5 24.7754 19.7246 25 20 25C20.2754 25 20.5 24.7754 20.5 24.5V23.5C20.5 23.2246 20.2754 23 20 23ZM22.5 23C22.2246 23 22 23.2246 22 23.5V24.5C22 24.7754 22.2246 25 22.5 25C22.7754 25 23 24.7754 23 24.5V23.5C23 23.2246 22.7754 23 22.5 23ZM25 23C24.7246 23 24.5 23.2246 24.5 23.5V24.5C24.5 24.7754 24.7246 25 25 25C25.2754 25 25.5 24.7754 25.5 24.5V23.5C25.5 23.2246 25.2754 23 25 23ZM27.5 23C27.2246 23 27 23.2246 27 23.5V24.5C27 24.7754 27.2246 25 27.5 25C27.7754 25 28 24.7754 28 24.5V23.5C28 23.2246 27.7754 23 27.5 23Z" fill="#F98E58"/>
</svg>
