<svg width="26" height="29" viewBox="0 0 26 29" fill="none" xmlns="http://www.w3.org/2000/svg">
<path d="M4.97852 0.998047C4.83594 1.00195 4.69922 1.06836 4.60742 1.17969C4.51562 1.29102 4.47656 1.4375 4.5 1.58008V7H1C0.724609 7 0.5 7.22461 0.5 7.5V28.5C0.5 28.7754 0.724609 29 1 29H21C21.2754 29 21.5 28.7754 21.5 28.5V21.5H25C25.2754 21.5 25.5 21.2754 25.5 21V1.5C25.5 1.22461 25.2754 1 25 1H5.03711C5.01953 0.998047 5 0.998047 4.97852 0.998047ZM7.75586 2H24.5V20.5H21.5V7.63867C21.5684 7.38672 21.4316 7.12305 21.1855 7.03516C21.1836 7.03516 21.1816 7.03516 21.1816 7.0332C21.1797 7.0332 21.1777 7.0332 21.1758 7.03125L7.75586 2ZM5.5 2.2207L18.2441 7H5.5V2.2207ZM1.5 8H4.91602C4.9707 8.00977 5.02539 8.00977 5.07812 8H20.5V28H1.5V8ZM4 12C3.72461 12 3.5 12.2246 3.5 12.5V17C3.5 17.2754 3.72461 17.5 4 17.5H4.5C4.67969 17.502 4.84766 17.4082 4.93945 17.252C5.0293 17.0957 5.0293 16.9043 4.93945 16.748C4.84766 16.5918 4.67969 16.498 4.5 16.5V13H17.5V16.5C17.3203 16.498 17.1523 16.5918 17.0605 16.748C16.9707 16.9043 16.9707 17.0957 17.0605 17.252C17.1523 17.4082 17.3203 17.502 17.5 17.5H18C18.2754 17.5 18.5 17.2754 18.5 17V12.5C18.5 12.2246 18.2754 12 18 12H4ZM6 16C5.72461 16 5.5 16.2246 5.5 16.5V17.5C5.5 17.7754 5.72461 18 6 18C6.27539 18 6.5 17.7754 6.5 17.5V16.5C6.5 16.2246 6.27539 16 6 16ZM8.5 16C8.22461 16 8 16.2246 8 16.5V17.5C8 17.7754 8.22461 18 8.5 18C8.77539 18 9 17.7754 9 17.5V16.5C9 16.2246 8.77539 16 8.5 16ZM11 16C10.7246 16 10.5 16.2246 10.5 16.5V17.5C10.5 17.7754 10.7246 18 11 18C11.2754 18 11.5 17.7754 11.5 17.5V16.5C11.5 16.2246 11.2754 16 11 16ZM13.5 16C13.2246 16 13 16.2246 13 16.5V17.5C13 17.7754 13.2246 18 13.5 18C13.7754 18 14 17.7754 14 17.5V16.5C14 16.2246 13.7754 16 13.5 16ZM16 16C15.7246 16 15.5 16.2246 15.5 16.5V17.5C15.5 17.7754 15.7246 18 16 18C16.2754 18 16.5 17.7754 16.5 17.5V16.5C16.5 16.2246 16.2754 16 16 16ZM4.5 20C4.32031 19.998 4.15234 20.0918 4.06055 20.248C3.9707 20.4043 3.9707 20.5957 4.06055 20.752C4.15234 20.9082 4.32031 21.002 4.5 21H17.5C17.6797 21.002 17.8477 20.9082 17.9395 20.752C18.0293 20.5957 18.0293 20.4043 17.9395 20.248C17.8477 20.0918 17.6797 19.998 17.5 20H4.5ZM4.5 23C4.32031 22.998 4.15234 23.0918 4.06055 23.248C3.9707 23.4043 3.9707 23.5957 4.06055 23.752C4.15234 23.9082 4.32031 24.002 4.5 24H12C12.1797 24.002 12.3477 23.9082 12.4395 23.752C12.5293 23.5957 12.5293 23.4043 12.4395 23.248C12.3477 23.0918 12.1797 22.998 12 23H4.5ZM14 23C13.8203 22.998 13.6523 23.0918 13.5605 23.248C13.4707 23.4043 13.4707 23.5957 13.5605 23.752C13.6523 23.9082 13.8203 24.002 14 24H16C16.1797 24.002 16.3477 23.9082 16.4395 23.752C16.5293 23.5957 16.5293 23.4043 16.4395 23.248C16.3477 23.0918 16.1797 22.998 16 23H14Z" fill="#F98E58"/>
</svg>
