<svg width="72" height="72" viewBox="0 0 72 72" fill="none" xmlns="http://www.w3.org/2000/svg">
<path d="M40.4253 0.531738C39.1377 0.544922 37.9907 1.27441 37.4282 2.43018L36.3911 4.56152H12.375C10.5161 4.56152 9 6.07764 9 7.93652V9.91406C6.9873 11.083 5.625 13.2583 5.625 15.75C5.625 19.0898 8.06396 21.8584 11.25 22.3989V23.2954C10.415 23.4053 9.58447 23.5723 8.77148 23.8052C6.28418 24.5171 4.11768 25.9585 2.50488 27.9756C0.89209 29.9927 0 32.5283 0 35.1167V45.5625C0 47.7334 1.7666 49.5 3.9375 49.5C4.48682 49.5 5.00977 49.3857 5.48438 49.1836L4.6626 67.2935C4.60547 68.5371 5.04492 69.7104 5.90625 70.6113C6.76318 71.5078 7.91455 72 9.16699 72C11.2236 72 12.9683 70.6157 13.5 68.7085C14.0317 70.6157 15.7764 72 17.8418 72C19.0854 72 20.2412 71.5078 21.0981 70.6113C21.9551 69.7104 22.3945 68.5371 22.3418 67.2935L21.6387 51.8159H37.3799L30.5288 63.5581C30.2168 64.0942 30.397 64.7842 30.9331 65.0962C31.1089 65.2017 31.3066 65.25 31.5 65.25C31.8867 65.25 32.2603 65.0479 32.4712 64.6919L39.9858 51.8159H40.5V57.375C40.5 57.9946 41.001 58.5 41.625 58.5C42.249 58.5 42.75 57.9946 42.75 57.375V51.8159H43.2642L50.7788 64.6919C50.9854 65.0479 51.3633 65.25 51.75 65.25C51.9434 65.25 52.1411 65.2017 52.3169 65.0962C52.853 64.7842 53.0332 64.0942 52.7212 63.5581L45.8745 51.8159H66.375C68.2339 51.8159 69.75 50.2998 69.75 48.4409V13.3726C71.0596 12.9067 72 11.6587 72 10.1909V7.94092C72 6.07764 70.4839 4.56152 68.625 4.56152H44.5957L43.4663 2.36426C42.8818 1.23047 41.7349 0.531738 40.4648 0.531738H40.4253ZM40.4473 2.78174H40.4648C40.8955 2.78174 41.2646 3.01025 41.4624 3.39258L42.0293 4.5H38.9224L39.4497 3.41455C39.6387 3.02344 40.0122 2.78613 40.4473 2.78174ZM12.375 6.81152H68.625C69.2446 6.81152 69.75 7.31689 69.75 7.93652V10.1909C69.75 10.8105 69.2446 11.3159 68.625 11.3159H63C62.376 11.3159 61.875 11.8213 61.875 12.4409C61.875 13.0605 62.376 13.5659 63 13.5659H67.5V48.4409C67.5 49.0605 66.9946 49.5659 66.375 49.5659H21.5332L21.375 46.0986V35.4419L22.3945 36.1318C24.438 37.5117 26.8462 38.25 29.3159 38.25H34.1982C36.0791 38.25 37.7886 36.98 38.1621 35.1387C38.6851 32.6074 36.7559 30.375 34.3125 30.375H30.9595C30.0146 30.375 29.0874 30.0762 28.3184 29.5181L24.4819 26.7363C22.7593 25.4883 20.8301 24.5522 18.7866 23.9678L18.2329 23.8052C16.686 23.3657 15.0952 23.146 13.5 23.146V22.3989C16.6904 21.8628 19.125 19.0898 19.125 15.75C19.125 14.9854 18.9932 14.2515 18.7559 13.5659H49.5C50.124 13.5659 50.625 13.0605 50.625 12.4409C50.625 11.8169 50.124 11.3159 49.5 11.3159H17.4507C16.2114 9.89648 14.4009 9 12.375 9C11.9927 9 11.6147 9.03955 11.25 9.10107V7.93652C11.25 7.31689 11.7554 6.81152 12.375 6.81152ZM12.375 11.0303C14.9766 11.0303 17.0947 13.1484 17.0947 15.75C17.0947 18.3516 14.9766 20.4697 12.375 20.4697C9.77344 20.4697 7.65527 18.3516 7.65527 15.75C7.65527 13.1484 9.77344 11.0303 12.375 11.0303ZM54 11.3159C53.376 11.3159 52.875 11.8169 52.875 12.4409C52.875 13.0605 53.376 13.5659 54 13.5659H58.5C59.124 13.5659 59.625 13.0605 59.625 12.4409C59.625 11.8169 59.124 11.3159 58.5 11.3159H54ZM13.5 25.396C14.8843 25.396 16.2686 25.585 17.6133 25.9717C19.771 26.5869 21.8057 27.5757 23.625 28.894L27 31.3418C28.1514 32.1768 29.54 32.625 30.9595 32.625H34.3125C35.2441 32.625 36 33.3809 36 34.3125C36 35.2441 35.2441 36 34.3125 36H29.3203C27.2988 36 25.3257 35.3979 23.6558 34.2686L20.8828 32.3965C20.5312 32.1636 20.0918 32.1372 19.7227 32.335C19.3535 32.5327 19.125 32.9106 19.125 33.3281V46.125C19.125 46.1426 19.125 46.1602 19.125 46.1777L20.0918 67.3945C20.1182 68.0142 19.8984 68.603 19.4722 69.0513C18.9976 69.5479 18.3428 69.7983 17.644 69.7412C16.4971 69.6489 15.6401 68.6382 15.583 67.4956L14.625 48.3179C14.5942 47.7202 14.0977 47.25 13.5 47.25C12.9023 47.25 12.4058 47.7202 12.375 48.3179L11.4214 67.4648C11.3599 68.6074 10.5205 69.6313 9.37793 69.7368C8.6748 69.8027 8.01123 69.5566 7.53223 69.0557C7.10156 68.6074 6.88184 68.0186 6.9082 67.3989L7.875 46.125V33.3765C7.875 32.7568 7.37402 32.2515 6.75 32.2515C6.12598 32.2515 5.625 32.7568 5.625 33.3765V45.5625C5.625 46.4941 4.86914 47.25 3.9375 47.25C3.00586 47.25 2.25 46.4941 2.25 45.5625V35.4023C2.25 33.1831 2.93994 30.9902 4.34619 29.2764C5.65576 27.6812 7.396 26.5386 9.38672 25.9717C10.7314 25.585 12.1157 25.396 13.5 25.396ZM13.5 30.9375C12.876 30.9375 12.375 31.4429 12.375 32.0625C12.375 32.6821 12.876 33.1875 13.5 33.1875H15.75C16.374 33.1875 16.875 32.6821 16.875 32.0625C16.875 31.4429 16.374 30.9375 15.75 30.9375H13.5ZM24.75 42.8159C24.126 42.8159 23.625 43.3169 23.625 43.9409V46.1909C23.625 46.8105 24.126 47.3159 24.75 47.3159C25.374 47.3159 25.875 46.8105 25.875 46.1909V43.9409C25.875 43.3169 25.374 42.8159 24.75 42.8159ZM30.375 42.8159C29.751 42.8159 29.25 43.3169 29.25 43.9409V46.1909C29.25 46.8105 29.751 47.3159 30.375 47.3159C30.999 47.3159 31.5 46.8105 31.5 46.1909V43.9409C31.5 43.3169 30.999 42.8159 30.375 42.8159ZM36 42.8159C35.376 42.8159 34.875 43.3169 34.875 43.9409V46.1909C34.875 46.8105 35.376 47.3159 36 47.3159C36.624 47.3159 37.125 46.8105 37.125 46.1909V43.9409C37.125 43.3169 36.624 42.8159 36 42.8159ZM41.625 42.8159C41.001 42.8159 40.5 43.3169 40.5 43.9409V46.1909C40.5 46.8105 41.001 47.3159 41.625 47.3159C42.249 47.3159 42.75 46.8105 42.75 46.1909V43.9409C42.75 43.3169 42.249 42.8159 41.625 42.8159ZM47.25 42.8159C46.626 42.8159 46.125 43.3169 46.125 43.9409V46.1909C46.125 46.8105 46.626 47.3159 47.25 47.3159C47.874 47.3159 48.375 46.8105 48.375 46.1909V43.9409C48.375 43.3169 47.874 42.8159 47.25 42.8159ZM52.875 42.8159C52.251 42.8159 51.75 43.3169 51.75 43.9409V46.1909C51.75 46.8105 52.251 47.3159 52.875 47.3159C53.499 47.3159 54 46.8105 54 46.1909V43.9409C54 43.3169 53.499 42.8159 52.875 42.8159ZM58.5 42.8159C57.876 42.8159 57.375 43.3169 57.375 43.9409V46.1909C57.375 46.8105 57.876 47.3159 58.5 47.3159C59.124 47.3159 59.625 46.8105 59.625 46.1909V43.9409C59.625 43.3169 59.124 42.8159 58.5 42.8159ZM64.125 42.8159C63.501 42.8159 63 43.3169 63 43.9409V46.1909C63 46.8105 63.501 47.3159 64.125 47.3159C64.749 47.3159 65.25 46.8105 65.25 46.1909V43.9409C65.25 43.3169 64.749 42.8159 64.125 42.8159Z" fill="#F98E58"/>
</svg>
