<svg width="52" height="64" viewBox="0 0 52 64" fill="none" xmlns="http://www.w3.org/2000/svg">
<path d="M4.5 0.5C2.01709 0.5 0 2.51709 0 5V59C0 61.4829 2.01709 63.5 4.5 63.5H46.125C47.9839 63.5 49.5 61.9839 49.5 60.125V56.5435C50.8052 56.0776 51.75 54.8384 51.75 53.375V3.875C51.75 2.01611 50.2339 0.5 48.375 0.5H4.5ZM4.5 2.75H48.375C48.9946 2.75 49.5 3.25537 49.5 3.875V53.375C49.5 53.9946 48.9946 54.5 48.375 54.5H13.5V15.125C13.5 14.5054 12.999 14 12.375 14C11.751 14 11.25 14.5054 11.25 15.125V54.5H4.5C3.80566 54.5 2.99268 54.7505 2.25 55.2119V5C2.25 3.76074 3.26074 2.75 4.5 2.75ZM5.625 5C5.00098 5 4.5 5.50537 4.5 6.125C4.5 6.74463 5.00098 7.25 5.625 7.25H7.875C8.49902 7.25 9 6.74463 9 6.125C9 5.50537 8.49902 5 7.875 5H5.625ZM12.375 5C11.751 5 11.25 5.50537 11.25 6.125V10.625C11.25 11.2446 11.751 11.75 12.375 11.75C12.999 11.75 13.5 11.2446 13.5 10.625V6.125C13.5 5.50537 12.999 5 12.375 5ZM5.625 10.625C5.00098 10.625 4.5 11.1304 4.5 11.75C4.5 12.3696 5.00098 12.875 5.625 12.875H7.875C8.49902 12.875 9 12.3696 9 11.75C9 11.1304 8.49902 10.625 7.875 10.625H5.625ZM5.625 16.25C5.00098 16.25 4.5 16.7554 4.5 17.375C4.5 17.9946 5.00098 18.5 5.625 18.5H7.875C8.49902 18.5 9 17.9946 9 17.375C9 16.7554 8.49902 16.25 7.875 16.25H5.625ZM5.625 21.875C5.00098 21.875 4.5 22.3804 4.5 23C4.5 23.6196 5.00098 24.125 5.625 24.125H7.875C8.49902 24.125 9 23.6196 9 23C9 22.3804 8.49902 21.875 7.875 21.875H5.625ZM21.375 23C20.751 23 20.25 23.5054 20.25 24.125C20.25 24.7446 20.751 25.25 21.375 25.25H32.625C33.249 25.25 33.75 24.7446 33.75 24.125C33.75 23.5054 33.249 23 32.625 23H21.375ZM37.125 23C36.501 23 36 23.5054 36 24.125C36 24.7446 36.501 25.25 37.125 25.25H41.625C42.249 25.25 42.75 24.7446 42.75 24.125C42.75 23.5054 42.249 23 41.625 23H37.125ZM5.625 27.5C5.00098 27.5 4.5 28.0054 4.5 28.625C4.5 29.2446 5.00098 29.75 5.625 29.75H7.875C8.49902 29.75 9 29.2446 9 28.625C9 28.0054 8.49902 27.5 7.875 27.5H5.625ZM25.875 27.5C25.251 27.5 24.75 28.0054 24.75 28.625C24.75 29.2446 25.251 29.75 25.875 29.75H37.125C37.749 29.75 38.25 29.2446 38.25 28.625C38.25 28.0054 37.749 27.5 37.125 27.5H25.875ZM5.625 33.125C5.00098 33.125 4.5 33.6304 4.5 34.25C4.5 34.8696 5.00098 35.375 5.625 35.375H7.875C8.49902 35.375 9 34.8696 9 34.25C9 33.6304 8.49902 33.125 7.875 33.125H5.625ZM5.625 38.75C5.00098 38.75 4.5 39.2554 4.5 39.875C4.5 40.4946 5.00098 41 5.625 41H7.875C8.49902 41 9 40.4946 9 39.875C9 39.2554 8.49902 38.75 7.875 38.75H5.625ZM5.625 44.375C5.00098 44.375 4.5 44.8804 4.5 45.5C4.5 46.1196 5.00098 46.625 5.625 46.625H7.875C8.49902 46.625 9 46.1196 9 45.5C9 44.8804 8.49902 44.375 7.875 44.375H5.625ZM5.625 50C5.00098 50 4.5 50.5054 4.5 51.125C4.5 51.7446 5.00098 52.25 5.625 52.25H7.875C8.49902 52.25 9 51.7446 9 51.125C9 50.5054 8.49902 50 7.875 50H5.625ZM4.5 56.75H47.25V60.125C47.25 60.7446 46.7446 61.25 46.125 61.25H4.5C3.26074 61.25 2.25 60.2393 2.25 59C2.25 57.5981 3.81445 56.75 4.5 56.75Z" fill="#F98E58"/>
</svg>
