<svg width="24" height="18" viewBox="0 0 24 18" fill="none" xmlns="http://www.w3.org/2000/svg">
<path d="M9.33334 0.122314C8.9922 0.122314 8.65105 0.255127 8.39063 0.515544L0.848968 8.05721C0.328135 8.57804 0.328135 9.42179 0.848968 9.94263L8.39063 17.4843C8.91147 18.0051 9.75522 18.0051 10.2761 17.4843L10.3906 17.3697C10.9115 16.8489 10.9115 16.0051 10.3906 15.4843L5.23959 10.3333H22.6667C23.4037 10.3333 24 9.7369 24 8.99992C24 8.26294 23.4037 7.66658 22.6667 7.66658H5.23959L10.3906 2.51554C10.9115 1.99471 10.9115 1.15096 10.3906 0.630126L10.2761 0.515544C10.0156 0.255127 9.67449 0.122314 9.33334 0.122314Z" fill="#F98E58"/>
</svg>
