<svg width="24" height="18" viewBox="0 0 24 18" fill="none" xmlns="http://www.w3.org/2000/svg">
<path d="M14.6666 17.8777C15.0078 17.8777 15.3489 17.7449 15.6093 17.4845L23.151 9.94279C23.6718 9.42196 23.6718 8.57821 23.151 8.05737L15.6093 0.515706C15.0885 -0.00512621 14.2448 -0.00512614 13.7239 0.515706L13.6093 0.63029C13.0885 1.15112 13.0885 1.99487 13.6093 2.51571L18.7604 7.66675L1.33329 7.66675C0.596314 7.66675 -4.08949e-05 8.2631 -4.08304e-05 9.00008C-4.0766e-05 9.73706 0.596315 10.3334 1.33329 10.3334L18.7604 10.3334L13.6093 15.4845C13.0885 16.0053 13.0885 16.849 13.6093 17.3699L13.7239 17.4845C13.9843 17.7449 14.3255 17.8777 14.6666 17.8777Z" fill="#F98E58"/>
</svg>
