<svg width="30" height="32" viewBox="0 0 30 32" fill="none" xmlns="http://www.w3.org/2000/svg">
<path d="M19.5 0C18.6738 0 18 0.673828 18 1.5V2.22656L7.35352 9H2.5C1.12109 9 0 10.1211 0 11.5V20.5C0 21.8789 1.12109 23 2.5 23H7.35352L18 29.7734V30.5C18 31.3262 18.6738 32 19.5 32C20.3262 32 21 31.3262 21 30.5V1.5C21 0.673828 20.3262 0 19.5 0ZM19.5 1C19.7754 1 20 1.22461 20 1.5V30.5C20 30.7754 19.7754 31 19.5 31C19.2246 31 19 30.7754 19 30.5V1.5C19 1.22461 19.2246 1 19.5 1ZM18 3.41016V28.5898L8 22.2266V9.77344L10 8.50195V17.5C10 17.7773 10.2246 18 10.5 18C10.7754 18 11 17.7773 11 17.5V8C11 7.95703 10.9863 7.91992 10.9766 7.88086L18 3.41016ZM25.9375 6.14062C25.8105 6.13477 25.6797 6.17773 25.5781 6.26953C25.373 6.45312 25.3555 6.76953 25.5391 6.97656C27.7715 9.45703 29 12.6602 29 16C29 19.3398 27.7715 22.5449 25.5391 25.0254C25.3555 25.2305 25.3711 25.5469 25.5781 25.7324C25.6719 25.8184 25.793 25.8594 25.9121 25.8594C26.0488 25.8594 26.1836 25.8047 26.2832 25.6953C28.6797 23.0293 30 19.5879 30 16C30 12.4141 28.6816 8.9707 26.2832 6.30664C26.1914 6.20312 26.0664 6.14844 25.9375 6.14062ZM24.2949 8.81055C24.166 8.79297 24.0332 8.82617 23.9238 8.91016C23.7051 9.07812 23.6641 9.39258 23.834 9.61133C25.25 11.457 26 13.666 26 16C26 18.334 25.25 20.543 23.832 22.3906C23.6641 22.6094 23.7051 22.9219 23.9238 23.0918C24.0156 23.1602 24.123 23.1953 24.2285 23.1953C24.3789 23.1953 24.5273 23.127 24.625 23C26.1797 20.9766 27 18.5566 27 16C27 13.4434 26.1797 11.0234 24.625 9.00195C24.541 8.89258 24.4219 8.82812 24.2949 8.81055ZM2.5 10H7V22H2.5C1.67383 22 1 21.3262 1 20.5V11.5C1 10.6738 1.67383 10 2.5 10ZM2.47852 10.5215C2.20312 10.5215 1.97852 10.7441 1.97852 11.0215C1.97852 11.2988 2.20312 11.5215 2.47852 11.5215H3.47852C3.75391 11.5215 3.97852 11.2988 3.97852 11.0215C3.97852 10.7441 3.75391 10.5215 3.47852 10.5215H2.47852ZM22.4199 11.584C22.3555 11.5918 22.291 11.6113 22.2305 11.6465C21.9902 11.7812 21.9043 12.0859 22.0391 12.3262C22.668 13.4414 23 14.7129 23 16C23 17.248 22.6875 18.4844 22.0938 19.5742C21.9629 19.8164 22.0527 20.1211 22.2969 20.252C22.3711 20.293 22.4531 20.3125 22.5332 20.3125C22.7109 20.3125 22.8828 20.2188 22.9746 20.0527C23.6445 18.8164 24 17.4141 24 16C24 14.541 23.623 13.0996 22.9121 11.8359C22.8086 11.6562 22.6133 11.5625 22.4199 11.584ZM2.47852 13.0215C2.20312 13.0215 1.97852 13.2441 1.97852 13.5215C1.97852 13.7988 2.20312 14.0215 2.47852 14.0215H3.47852C3.75391 14.0215 3.97852 13.7988 3.97852 13.5215C3.97852 13.2441 3.75586 13.0215 3.47852 13.0215H2.47852ZM2.47852 15.5215C2.20312 15.5215 1.97852 15.7441 1.97852 16.0215C1.97852 16.2988 2.20312 16.5215 2.47852 16.5215H3.47852C3.75391 16.5215 3.97852 16.2988 3.97852 16.0215C3.97852 15.7441 3.75586 15.5215 3.47852 15.5215H2.47852ZM2.47852 18.0215C2.20312 18.0215 1.97852 18.2441 1.97852 18.5215C1.97852 18.7988 2.20312 19.0215 2.47852 19.0215H3.47852C3.75391 19.0215 3.97852 18.7988 3.97852 18.5215C3.97852 18.2441 3.75586 18.0215 3.47852 18.0215H2.47852ZM10.5 19C10.2246 19 10 19.2227 10 19.5V21.5C10 21.7773 10.2246 22 10.5 22C10.7754 22 11 21.7773 11 21.5V19.5C11 19.2227 10.7754 19 10.5 19ZM2.47852 20.5215C2.20312 20.5215 1.97852 20.7441 1.97852 21.0215C1.97852 21.2988 2.20312 21.5215 2.47852 21.5215H3.47852C3.75391 21.5215 3.97852 21.2988 3.97852 21.0215C3.97852 20.7441 3.75586 20.5215 3.47852 20.5215H2.47852Z" fill="#F98E58"/>
</svg>
