<svg width="30" height="21" viewBox="0 0 30 21" fill="none" xmlns="http://www.w3.org/2000/svg">
<path d="M1.5 0C0.673828 0 0 0.673828 0 1.5V19.5C0 20.3262 0.673828 21 1.5 21H28.5C29.3262 21 30 20.3262 30 19.5V1.5C30 0.673828 29.3262 0 28.5 0H1.5ZM1.5 1H28.5C28.7754 1 29 1.22461 29 1.5V1.74414L15.5859 11.459C15.2363 11.7129 14.7637 11.7129 14.4141 11.459L1 1.74414V1.5C1 1.22461 1.22461 1 1.5 1ZM1 2.97852L13.8281 12.2676C14.1777 12.5215 14.5898 12.6484 15 12.6484C15.4102 12.6484 15.8223 12.5215 16.1719 12.2676L29 2.97852V15.6094L20.7344 10.5723C20.498 10.4277 20.1895 10.5039 20.0469 10.7402C19.9043 10.9766 19.9785 11.2832 20.2129 11.4277L29 16.7812V19.5C29 19.7754 28.7754 20 28.5 20H1.5C1.22461 20 1 19.7754 1 19.5V16.7812L9.78711 11.4277C10.0215 11.2832 10.0977 10.9746 9.95312 10.7402C9.80859 10.5039 9.50195 10.4277 9.26562 10.5723L1 15.6094V2.97852ZM2.5 17C2.22461 17 2 17.2227 2 17.5V18.5C2 18.7773 2.22461 19 2.5 19C2.77539 19 3 18.7773 3 18.5V17.5C3 17.2227 2.77539 17 2.5 17ZM5 17C4.72461 17 4.5 17.2227 4.5 17.5V18.5C4.5 18.7773 4.72461 19 5 19C5.27539 19 5.5 18.7773 5.5 18.5V17.5C5.5 17.2227 5.27539 17 5 17ZM7.5 17C7.22461 17 7 17.2227 7 17.5V18.5C7 18.7773 7.22461 19 7.5 19C7.77539 19 8 18.7773 8 18.5V17.5C8 17.2227 7.77539 17 7.5 17ZM10 17C9.72461 17 9.5 17.2227 9.5 17.5V18.5C9.5 18.7773 9.72461 19 10 19C10.2754 19 10.5 18.7773 10.5 18.5V17.5C10.5 17.2227 10.2754 17 10 17ZM12.5 17C12.2246 17 12 17.2227 12 17.5V18.5C12 18.7773 12.2246 19 12.5 19C12.7754 19 13 18.7773 13 18.5V17.5C13 17.2227 12.7754 17 12.5 17ZM15 17C14.7246 17 14.5 17.2227 14.5 17.5V18.5C14.5 18.7773 14.7246 19 15 19C15.2754 19 15.5 18.7773 15.5 18.5V17.5C15.5 17.2227 15.2754 17 15 17ZM17.5 17C17.2246 17 17 17.2227 17 17.5V18.5C17 18.7773 17.2246 19 17.5 19C17.7754 19 18 18.7773 18 18.5V17.5C18 17.2227 17.7754 17 17.5 17ZM20 17C19.7246 17 19.5 17.2227 19.5 17.5V18.5C19.5 18.7773 19.7246 19 20 19C20.2754 19 20.5 18.7773 20.5 18.5V17.5C20.5 17.2227 20.2754 17 20 17ZM22.5 17C22.2246 17 22 17.2227 22 17.5V18.5C22 18.7773 22.2246 19 22.5 19C22.7754 19 23 18.7773 23 18.5V17.5C23 17.2227 22.7754 17 22.5 17ZM25 17C24.7246 17 24.5 17.2227 24.5 17.5V18.5C24.5 18.7773 24.7246 19 25 19C25.2754 19 25.5 18.7773 25.5 18.5V17.5C25.5 17.2227 25.2754 17 25 17ZM27.5 17C27.2246 17 27 17.2227 27 17.5V18.5C27 18.7773 27.2246 19 27.5 19C27.7754 19 28 18.7773 28 18.5V17.5C28 17.2227 27.7754 17 27.5 17Z" fill="#F98E58"/>
</svg>
